<?xml version="1.0" encoding="UTF-8"?>
<svg width="160px" height="154px" viewBox="0 0 160 154" version="1.1" xmlns="http://www.w3.org/2000/svg" xmlns:xlink="http://www.w3.org/1999/xlink">
    <title>vortex</title>
    <defs>
        <path d="M64.27,3.9033122 C64.262,4.0363122 64.274,4.1763122 64.309,4.3013122 C65.657,8.8373122 63.813,10.4653122 59.289,11.6963122 C33.016,18.8523122 13.731,42.7393122 11.223,69.8333122 C8.18,102.704312 26.836,133.165312 58.375,144.114312 C61.141,145.075312 61.344,146.188312 60.301,148.680312 C57.793,154.680312 57.914,154.735312 51.762,152.442312 C20.61,140.840312 -0.004,111.696312 0,79.2473122 C0,42.7313122 24.7,10.0283122 59.325,0.446312204 C62.938,-0.553687796 64.578,-0.0656877954 64.27,3.9033122 Z" id="path-1"></path>
        <path d="M135.383,46.6843122 C144.973,61.7233122 146.821,77.9383122 141.645,94.7433122 C133.524,121.122312 115.801,137.114312 88.434,141.989312 C85.821,142.454312 83.118,142.430312 80.454,142.630312 C70.204,142.598312 60.649,140.020312 51.571,135.356312 C49.61,134.348312 49.141,133.645312 50.454,131.563312 C54.352,125.387312 54.207,125.391312 60.657,128.298312 C78.578,136.380312 95.18,132.419312 110.723,122.114312 C133.547,106.981312 140.547,76.9543122 127.371,52.4973122 C126.754,51.3523122 124.75,50.0053122 126.223,48.7473122 C128.309,46.9653122 130.844,45.6063122 133.379,44.5083122 C134.332,44.0943122 134.84,45.8333122 135.383,46.6843122 Z" id="path-3"></path>
        <path d="M129.672,15.2193122 C147.516,29.7553122 156.672,48.9463122 159.086,71.5793122 C159.438,74.8953122 159.539,78.2393122 159.711,80.9113122 C159.36,105.290312 149.692,124.356312 131.313,139.204312 C129.063,141.020312 127.825,141.098312 125.934,138.653312 C121.895,133.419312 121.836,133.649312 126.543,129.301312 C142.954,114.137312 149.649,95.0123122 148.723,73.0673122 C147.809,51.4813122 138.036,34.4893122 120.688,21.8833122 C117.782,19.7743122 117.938,18.5123122 120.051,16.1653122 C125.332,10.3133122 123.442,10.1493122 129.672,15.2193122 Z" id="path-5"></path>
        <path d="M85.555,13.7473122 C91.985,14.4733122 98.125,16.0513122 104.153,18.3253122 C106.371,19.1613122 106.875,20.1263122 106,22.4343122 C103.68,28.5633122 103.797,28.6063122 97.352,26.7513122 C73.938,20.0013122 51.34,26.4813122 37.371,44.3643122 C26.856,57.8213122 24.305,73.4153122 27.106,89.8603122 C27.7125172,93.4348639 26.2247206,93.9615378 24.5090218,94.2115252 L24.2435218,94.2481757 C24.199056,94.2540448 24.1545034,94.2598255 24.1098952,94.2655644 L23.8418329,94.2998705 L23.8418329,94.2998705 L23.5739501,94.3354168 C23.039371,94.4092444 22.514931,94.5039674 22.055,94.7003122 C19.45,95.8053122 17.961,95.0903122 17.328,92.0553122 C16.231,86.8053122 15.266,81.5713122 15.383,76.1883122 C15.422,39.9623122 49.524,9.6723122 85.555,13.7473122 Z" id="path-7"></path>
        <path d="M82.598,29.1883122 C99.801,29.7313122 113.192,37.8563122 121.989,53.4463122 C130.84,69.1333122 131.84,85.0123122 122.868,101.094312 C121.481,103.583312 120.141,104.497312 117.825,102.321312 C117.727,102.231312 117.606,102.169312 117.493,102.098312 C112.559,99.0323122 112.559,99.0323122 114.786,93.5983122 C121.805,76.4893122 116.578,57.7313122 101.743,46.7553122 C87.735,36.3913122 68.407,37.2393122 54.321,49.0013122 C52.383,50.6183122 51.454,50.6613122 49.696,48.7473122 C44.743,43.3683122 44.637,43.4773122 50.684,39.1493122 C60.004,32.4733122 70.493,29.4893122 82.598,29.1883122 Z" id="path-9"></path>
        <path d="M33.93,71.9113122 C34.309,72.0013122 34.731,71.9193122 35.129,71.9263122 C41.231,72.0513122 41.231,72.0513122 41.235,77.9073122 C41.262,103.692312 63.836,121.825312 88.828,116.063312 C91.192,115.520312 92.645,115.563312 92.813,118.462312 C92.879,119.633312 93.34,120.805312 93.758,121.926312 C94.485,123.860312 94.016,124.813312 91.848,125.200312 C88.024,125.880312 84.219,126.559312 80.668,126.415312 C52.368,126.395312 31.262,105.516312 31.0276206,77.6493122 C31.02,76.5833122 31.262,75.5123122 31.211,74.4543122 C31.114,72.4653122 31.711,71.3833122 33.93,71.9113122 Z" id="path-11"></path>
    </defs>
    <g id="Page-1" stroke="none" stroke-width="1" fill="none" fill-rule="evenodd">
        <g id="vortex">
            <mask id="mask-2" fill="white">
                <use xlink:href="#path-1"></use>
            </mask>
            <use id="path-1" fill="#000000" xlink:href="#path-1"></use>
            <mask id="mask-4" fill="white">
                <use xlink:href="#path-3"></use>
            </mask>
            <use id="path-3" fill="#000000" xlink:href="#path-3"></use>
            <mask id="mask-6" fill="white">
                <use xlink:href="#path-5"></use>
            </mask>
            <use id="path-5" fill="#000000" xlink:href="#path-5"></use>
            <mask id="mask-8" fill="white">
                <use xlink:href="#path-7"></use>
            </mask>
            <use id="path-7" fill="#000000" xlink:href="#path-7"></use>
            <mask id="mask-10" fill="white">
                <use xlink:href="#path-9"></use>
            </mask>
            <use id="path-9" fill="#000000" xlink:href="#path-9"></use>
            <mask id="mask-12" fill="white">
                <use xlink:href="#path-11"></use>
            </mask>
            <g id="path-11"></g>
        </g>
    </g>
</svg>